<svg xmlns="http://www.w3.org/2000/svg" width="21.261" height="18.853" viewBox="0 0 21.261 18.853"><defs><style>.a{fill:#8c8c8c;}</style></defs><path class="a" d="M52.367,10.094H42.585a1.474,1.474,0,0,0-1.474,1.474v.853H45.29a2.613,2.613,0,0,1,2.61,2.61V19.72h.815l3.012,4.113a.146.146,0,0,0,.265-.085V19.72h.376a1.476,1.476,0,0,0,1.474-1.476V11.568A1.476,1.476,0,0,0,52.367,10.094Z" transform="translate(-32.58 -10.094)"/><path class="a" d="M6.665,34.81h.422v4.548a.166.166,0,0,0,.3.1l3.4-4.646h6.922a1.665,1.665,0,0,0,1.665-1.665V25.607a1.665,1.665,0,0,0-1.665-1.665H6.665A1.665,1.665,0,0,0,5,25.607v7.538A1.665,1.665,0,0,0,6.665,34.81Z" transform="translate(-5 -20.67)"/></svg>